inDegrees=no
num_controls=7
num_derivatives=13
num_iterations=103
num_multipliers=7
num_parameters=0
num_slacks=7
num_states=26
objective=5.219835
objective_accelerations=0.381807
objective_balance=0.028757
objective_effort=0.178291
objective_height=4.562658
objective_ligament=0.068322
solver_duration=1154.774408
status=Solve_Succeeded
success=true
DataType=double
version=3
OpenSimVersion=4.4-2022-07-23-0e9fedc
endheader
time	/jointset/ground_pelvis/pelvis_tilt/value	/jointset/ground_pelvis/pelvis_tx/value	/jointset/ground_pelvis/pelvis_ty/value	/jointset/hip_l/hip_flexion_l/value	/jointset/hip_l/hip_adduction_l/value	/jointset/hip_l/hip_rotation_l/value	/jointset/back/lumbar_extension/value	/jointset/patellofemoral_l/patellar_flexion_l/value	/jointset/knee_l/knee_flexion_l/value	/jointset/knee_l/knee_adduction_l/value	/jointset/knee_l/knee_rotation_l/value	/jointset/ankle_l/ankle_angle_l/value	/jointset/subtalar_l/subtalar_angle_l/value	/jointset/ground_pelvis/pelvis_tilt/speed	/jointset/ground_pelvis/pelvis_tx/speed	/jointset/ground_pelvis/pelvis_ty/speed	/jointset/hip_l/hip_flexion_l/speed	/jointset/hip_l/hip_adduction_l/speed	/jointset/hip_l/hip_rotation_l/speed	/jointset/back/lumbar_extension/speed	/jointset/patellofemoral_l/patellar_flexion_l/speed	/jointset/knee_l/knee_flexion_l/speed	/jointset/knee_l/knee_adduction_l/speed	/jointset/knee_l/knee_rotation_l/speed	/jointset/ankle_l/ankle_angle_l/speed	/jointset/subtalar_l/subtalar_angle_l/speed	/forceset/tau_hip_flexion_l	/forceset/tau_hip_adduction_l	/forceset/tau_hip_rotation_l	/forceset/tau_knee_flexion_l	/forceset/tau_ankle_angle_l	/forceset/tau_subtalar_angle_l	/forceset/tau_lumbar_extension	lambda_cid13_p0	lambda_cid13_p1	lambda_cid13_p2	lambda_cid13_p3	lambda_cid13_p4	lambda_cid13_p5	lambda_cid14_p0	/jointset/ground_pelvis/pelvis_tilt/accel	/jointset/ground_pelvis/pelvis_tx/accel	/jointset/ground_pelvis/pelvis_ty/accel	/jointset/hip_l/hip_flexion_l/accel	/jointset/hip_l/hip_adduction_l/accel	/jointset/hip_l/hip_rotation_l/accel	/jointset/back/lumbar_extension/accel	/jointset/patellofemoral_l/patellar_flexion_l/accel	/jointset/knee_l/knee_flexion_l/accel	/jointset/knee_l/knee_adduction_l/accel	/jointset/knee_l/knee_rotation_l/accel	/jointset/ankle_l/ankle_angle_l/accel	/jointset/subtalar_l/subtalar_angle_l/accel	gamma_cid13_p0	gamma_cid13_p1	gamma_cid13_p2	gamma_cid13_p3	gamma_cid13_p4	gamma_cid13_p5	gamma_cid14_p0
0	-0.04443004294542401	0.07108497814853521	0.8961508576087052	0.1955292361009247	-0.3198570747456685	-0.5253937195999284	-0.137903700187828	0.07015350928393399	0.07015350928391206	-0.1745327782268466	-0.1577712212307181	-0.06701017130107029	0.006602211565142548	0	0	0	0	0	0	0	0	0	0	0	0	0	0.08585927187613882	-0.1084250258157563	-0.03872664857348487	-0.2481734246184736	0.2471643475567564	-0.0175589077378162	-0.02707776595813087	43.70375305501486	-4.390246183452576	5.348596371466626	-32.74660204823015	-522.6387391459103	-80.50702344369546	-41.05211783217875	-1.360423112222972	-0.312052298774849	-0.5738606361863549	6.276438155465841	-2.122426143307516	3.022186602909501	-2.279113998680302	8.681558801811775	8.681558801812134	0.3150731792641144	-0.3068260435964161	3.740282172351809	-0.2814225193336108	-4.200041510329529e-08	8.543634892550255e-08	1.027787852254259e-07	1.638307520571589e-08	-1.802361159476347e-08	-5.794006830796054e-08	-8.746946844516961e-09
0.01	-0.04449280935634477	0.07107033695509934	0.8961231100795669	0.195829913441307	-0.3199614722770093	-0.5252417316044247	-0.1380209501500733	0.07057572022198309	0.07057572022199309	-0.1745195009771416	-0.1577812392183996	-0.06682731291054052	0.006587720047686728	-0.01252984903166574	-0.00285707475544008	-0.005530606402090193	0.05983746748176969	-0.02078526808617123	0.03026145503854317	-0.02325792335437241	0.08407480473266254	0.0840748047326647	0.002639749665779486	-0.001990914960456081	0.03648394213282802	-0.002843764284681941	0.08488762145616545	-0.1178060299459687	-0.03859741264260412	-0.248244753479138	0.2426928149857855	-0.008291275245082158	-0.02600069568065248	42.57955599841682	-7.946123811996311	5.604563110815265	-33.18803419115108	-523.5403171016375	-88.51170556278419	-41.06013390731842	-1.195761730644909	-0.2618571982434589	-0.5398293334340852	5.792689581641534	-2.042467419004943	3.007692220004043	-2.320321139514492	8.21533562482548	8.215335624825187	0.2360989638930258	-0.1433118397050243	3.589287372537782	-0.2776973723027166	-7.892392681435584e-08	1.101411259681103e-07	1.55979860232771e-07	4.730658794752239e-08	-1.493706682452804e-07	-9.393031424988578e-08	-1.506785051404103e-08
0.02	-0.0446801734440005	0.07102926058724372	0.8960406227481648	0.1967200231639824	-0.3202709005447565	-0.5247912156054495	-0.1383650172729891	0.07182765807067509	0.07182765807066599	-0.174480291608599	-0.1578107838789951	-0.06628224767092382	0.006546422089530833	-0.02491953534362824	-0.005287034883948912	-0.01094796045278045	0.1178864764477971	-0.04100614728168703	0.05970560070418524	-0.04536343213664343	0.1659453820986208	0.165945382098623	0.005186423477849669	-0.003905334618336546	0.07244136981723492	-0.005361288140074576	0.08391597103721984	-0.127187034076175	-0.03846817671259389	-0.2483160823390405	0.2382212824151032	0.0009763572478244985	-0.02492362540256534	41.50906612094936	-11.51344040287225	5.864679874935965	-33.8496749493935	-523.7090704579517	-96.3687023208936	-41.0837551692567	-1.332390568282299	-0.2266293733888489	-0.551210165906484	5.918746452317131	-2.009548365177547	2.858724728329246	-2.048631084259916	8.240713328471008	8.240713328470948	0.2964580085197091	-0.2915269830814493	3.634979282666941	-0.21617443347732	-1.158474385254164e-07	1.34845903010718e-07	2.091809352401161e-07	7.82301006893289e-08	-2.807177248957974e-07	-1.29920560191811e-07	-2.138875418356511e-08
0.03	-0.04499057378939812	0.07096546945448445	0.8959043604416104	0.1981825117158659	-0.3207795793582815	-0.5240503792298633	-0.1389242282243444	0.07388757587883747	0.07388757587874026	-0.1744159143963849	-0.1578593699040676	-0.06538078382854255	0.006481412574349392	-0.03709138791860919	-0.007453804373214312	-0.01629739775222536	0.1743391188599132	-0.06061924693404511	0.08834162597890648	-0.06630242359565283	0.2456578879213638	0.2456578879213658	0.007677166447364958	-0.005792297365044908	0.1076930745429729	-0.007609059207714233	0.08056746979866787	-0.120670549373551	-0.0377356339461289	-0.2437117420048149	0.2330556088453797	-0.001093394821147191	-0.02221344869711166	39.75798949621865	-10.46279686405051	5.874054603037067	-32.47837801318381	-524.061276253793	-93.66900154519669	-41.12207029779621	-1.149224487673411	-0.2090768728818687	-0.5258017204017019	5.467687160092396	-1.92067565240508	2.848008774342326	-2.09008299550284	7.779479771733367	7.779479771733001	0.2236538643812403	-0.1343211666520482	3.446508771934637	-0.2243890099060522	-1.45954761845987e-07	1.470636376284956e-07	2.586527057590149e-07	1.003163008108498e-07	-3.867662906642256e-07	-1.676624021281831e-07	-2.757310363750335e-08
0.04	-0.04542062103766466	0.07088053539959288	0.8957148055203735	0.2002013594967562	-0.3214810861457656	-0.5230267891321035	-0.139687539054052	0.07673321085768406	0.07673321085767651	-0.174326975469834	-0.1579262336059636	-0.06413155439802035	0.006394863235192295	-0.04884891591631961	-0.009515619310410322	-0.0216064833892677	0.2291583222492728	-0.07957174207204636	0.1162563451455677	-0.08618340780586631	0.3230888162464186	0.3230888162464198	0.01009876634544283	-0.007560869959228402	0.1419944874450117	-0.009669252935303862	0.07721896856039116	-0.1141540646707944	-0.03700309117902156	-0.2391074016703692	0.2278899352758595	-0.003163146889872786	-0.01950327199168178	38.05760927407083	-9.419548044935715	5.882916816867084	-31.31632621217464	-523.7314573197841	-90.82586190590813	-41.1739583675753	-1.249525652827803	-0.2056384629754566	-0.5431398334260008	5.592058647765949	-1.877427462306396	2.714463506717228	-1.837029634500611	7.784397828933485	7.78439782893329	0.2826293942317293	-0.2678489525766071	3.444920917926503	-0.1786589654678949	-1.759215451997433e-07	1.590239074540087e-07	3.080475834018633e-07	1.222202883010246e-07	-4.92293238063951e-07	-2.05440359445884e-07	-3.375463754060478e-08
0.05	-0.04596644169391399	0.07077546082457206	0.8954722147831639	0.202760952222437	-0.3223687834842749	-0.5217278665736751	-0.1406438098055228	0.08034228538080158	0.08034228538079814	-0.1742140554818672	-0.1580106344447539	-0.0625438950540847	0.006288763792282847	-0.06023810669378728	-0.01148512842084791	-0.02691353053694901	0.2824934746829395	-0.0978452166540732	0.1434071426474181	-0.1048745542018613	0.3983453047358408	0.3983453047358367	0.01248050876817971	-0.00930404169075557	0.175375695585429	-0.01150895495899577	0.07314289750852307	-0.1099285398547966	-0.03605876100850399	-0.2337524977418129	0.2196608122594999	-0.002245277835292947	-0.0162513340877721	35.46203295322546	-9.453184317897085	5.990477901881383	-29.68732233839056	-523.7368883542794	-90.46506978187601	-41.23799770110178	-1.072065712442498	-0.1904574245778203	-0.5248664395105338	5.16420660292471	-1.783983312477754	2.697194868665425	-1.855728898900342	7.33916361355249	7.339163613551607	0.2153041578215144	-0.1252249494460416	3.260454207551737	-0.1804320458160109	-1.957182930016055e-07	1.707818898696568e-07	3.38764349244954e-07	1.385956952733511e-07	-5.677927422254761e-07	-2.280920674666472e-07	-3.682318410359704e-08
